<svg viewBox="0 0 1607 1607" version="1.1" xmlns="http://www.w3.org/2000/svg" desc="Created with imagetracer.js version 1.2.6" ><path fill="rgb(53,129,240)" stroke="rgb(53,129,240)" stroke-width="1" opacity="1" d="M 782.5 49 L 855.5 50 L 925.5 57 L 994.5 70 L 1050.5 85 L 1099.5 102 L 1171.5 134 L 1228.5 166 L 1276.5 198 L 1293.5 212 L 1296.5 212 L 1303 206.5 L 1307 199.5 L 1323 142.5 Q 1327.4 132.4 1335.5 126 L 1348.5 119 L 1357.5 117 L 1366.5 117 L 1382.5 122 L 1393 130.5 L 1403 149.5 L 1408 174.5 L 1410 177.5 L 1415 198.5 L 1419 206.5 L 1424.5 212 L 1444.5 220 L 1482.5 230 L 1490.5 234 L 1501 243.5 L 1508 256.5 L 1510 272.5 L 1505 290.5 L 1493.5 304 L 1478.5 312 L 1437.5 322 L 1428.5 326 L 1422 332.5 L 1421 335.5 L 1460 387.5 L 1492 438.5 L 1525 503.5 L 1547 557.5 L 1567 622.5 L 1576 660.5 L 1581 690.5 L 1589 760.5 L 1590 833.5 L 1589 834.5 L 1589 858.5 L 1587 870.5 L 1587 881.5 L 1575 962.5 L 1557 1032.5 L 1530 1106.5 L 1499 1170.5 L 1459 1235.5 L 1417 1291.5 L 1374 1340 L 1332.5 1379 L 1282.5 1420 L 1241.5 1449 L 1202.5 1473 L 1186 1481 Q 1187.3 1484 1183.5 1483 L 1137.5 1507 L 1092.5 1526 L 1040.5 1544 L 992.5 1557 L 937.5 1568 L 891.5 1574 L 831.5 1577 L 830.5 1578 L 790.5 1578 L 789.5 1577 L 755.5 1576 L 696.5 1570 L 633.5 1559 L 569.5 1542 L 514.5 1523 L 490.5 1513 L 422.5 1479 L 386.5 1458 L 350.5 1434 L 278.5 1377 L 229 1328.5 L 178 1268.5 L 141 1216.5 L 108 1159.5 L 86 1114.5 L 70 1075.5 L 47 1004.5 L 41 980.5 L 31 926.5 L 23 849.5 L 23 765.5 L 28 710.5 L 41 639.5 L 60 573.5 L 83 513.5 L 113 452.5 L 153 387.5 L 196 331.5 L 238.5 284 L 241 282.5 L 242.5 281 L 245 277 L 248.5 275 L 299.5 228 L 354.5 186 L 425.5 143 L 487.5 113 L 527.5 97 L 563.5 85 L 636.5 66 L 701.5 55 L 712.5 55 L 742.5 51 L 781.5 50 L 782.5 49 Z M 1360 155 L 1357 159 L 1355 172 L 1346 205 L 1337 225 L 1331 233 L 1318 244 L 1300 253 L 1276 260 L 1253 264 L 1250 266 L 1248 272 L 1251 274 L 1296 285 L 1314 293 L 1323 299 L 1336 314 L 1343 329 L 1348 345 L 1350 358 L 1352 361 L 1357 392 L 1361 394 L 1365 393 L 1377 339 L 1383 323 L 1392 308 L 1405 296 L 1424 286 L 1445 279 L 1469 274 L 1472 270 L 1471 266 L 1427 255 L 1401 242 Q 1388 232 1381 216 L 1376 203 L 1366 165 L 1366 160 L 1364 157 L 1364 155 L 1360 155 Z M 333 670 L 333 722 L 332 723 L 238 723 L 236 724 L 234 726 L 234 863 L 236 864 L 273 864 L 274 863 L 274 851 L 278 852 L 330 852 L 332 851 L 333 853 L 333 941 L 337 943 L 370 943 L 372 942 L 373 941 L 373 907 L 374 906 L 373 852 L 424 852 L 425 851 L 427 852 L 432 851 L 433 853 Q 432 861 434 864 L 472 864 L 474 862 L 474 728 L 473 725 L 468 723 L 466 723 L 460 722 L 379 722 L 375 723 L 373 722 L 373 672 L 372 670 L 333 670 Z M 1091 697 L 1089 699 L 1089 890 L 1090 900 L 1093 900 L 1142 900 L 1143 901 L 1163 901 L 1164 900 L 1208 900 L 1209 901 L 1226 901 L 1227 900 L 1227 866 L 1226 864 L 1206 864 L 1205 865 L 1132 865 L 1130 864 L 1131 859 L 1131 818 L 1130 817 L 1131 814 L 1214 814 L 1215 813 L 1215 779 L 1132 779 L 1130 778 L 1131 777 L 1131 735 L 1132 732 L 1225 732 L 1225 699 L 1224 697 L 1091 697 Z M 712 700 L 705 705 L 626 783 L 619 791 L 618 795 L 620 807 L 705 891 L 715 897 L 722 897 L 731 892 L 736 884 L 736 876 L 734 872 L 696 834 L 678 815 L 686 814 L 700 814 L 701 815 L 898 815 L 844 871 L 841 878 L 844 890 L 850 895 L 855 897 L 864 897 L 871 893 L 879 884 L 880 883 L 884 880 L 933 830 L 949 815 L 958 803 L 958 793 L 956 789 L 873 705 L 866 700 L 856 700 L 850 702 L 844 708 L 841 715 Q 841 723 845 727 L 872 753 L 873 755 L 877 757 L 886 768 L 893 773 L 898 780 L 680 780 L 679 779 L 688 771 L 732 727 L 736 720 L 736 714 L 733 708 L 724 700 L 712 700 Z M 1329 747 L 1320 749 L 1300 761 L 1294 770 L 1292 754 L 1292 750 L 1255 750 L 1255 856 L 1256 857 L 1255 899 L 1257 900 L 1295 900 L 1295 810 L 1300 795 L 1309 786 L 1321 781 L 1333 781 L 1344 786 L 1350 796 L 1352 804 L 1352 854 L 1353 855 L 1352 899 L 1354 900 L 1392 900 L 1393 885 L 1393 848 L 1393 846 L 1392 843 L 1393 838 L 1393 836 L 1393 800 L 1391 787 L 1388 777 L 1380 764 L 1370 754 L 1356 748 L 1329 747 Z M 826 1246 L 824 1247 L 742 1348 L 744 1355 L 751 1359 L 795 1359 L 796 1361 L 773 1430 L 774 1435 L 778 1438 L 785 1437 L 867 1336 L 865 1328 L 862 1325 L 812 1325 L 834 1257 L 833 1248 L 830 1246 L 826 1246 Z " /><path fill="rgb(53,129,240)" stroke="rgb(53,129,240)" stroke-width="1" opacity="1" d="M 274 757 L 282.5 758 L 283.5 757 L 311.5 757 L 324.5 758 L 326.5 758 L 331.5 757 L 333 758.5 L 333 816 L 274 816 L 274 757 Z " /><path fill="rgb(53,129,240)" stroke="rgb(53,129,240)" stroke-width="1" opacity="1" d="M 374.5 757 L 379.5 758 L 381.5 757 L 389.5 758 L 390.5 757 L 425.5 757 L 433 758 L 433 813.5 L 434 814.5 L 432.5 816 L 374.5 816 L 373 814.5 L 373 758.5 L 374.5 757 Z " /><path fill="rgb(220,232,249)" stroke="rgb(220,232,249)" stroke-width="1" opacity="1" d="M 0 0 L 1607 0 L 1607 1607 L 0 1607 L 0 0 Z M 783 49 L 782 50 L 743 51 L 713 55 L 702 55 L 637 66 L 564 85 L 528 97 L 488 113 L 426 143 L 355 186 L 300 228 L 249 275 L 245 277 L 243 281 L 241 283 L 239 284 L 196 332 L 153 388 L 113 453 L 83 514 L 60 574 L 41 640 L 28 711 L 23 766 L 23 850 L 31 927 L 41 981 L 47 1005 L 70 1076 L 86 1115 L 108 1160 L 141 1217 L 178 1269 L 229 1329 L 279 1377 L 351 1434 L 387 1458 L 423 1479 L 491 1513 L 515 1523 L 570 1542 L 634 1559 L 697 1570 L 756 1576 L 790 1577 L 791 1578 L 831 1578 L 832 1577 L 892 1574 L 938 1568 L 993 1557 L 1041 1544 L 1093 1526 L 1138 1507 L 1184 1483 Q 1187 1484 1186 1481 L 1203 1473 L 1242 1449 L 1283 1420 L 1333 1379 L 1374 1340 L 1417 1292 L 1459 1236 L 1499 1171 L 1530 1107 L 1557 1033 L 1575 963 L 1587 882 L 1587 871 L 1589 859 L 1589 835 L 1590 834 L 1589 761 L 1581 691 L 1576 661 L 1567 623 L 1547 558 L 1525 504 L 1492 439 L 1460 388 L 1421 336 L 1422 333 L 1429 326 L 1438 322 L 1479 312 L 1494 304 L 1505 291 L 1510 273 L 1508 257 L 1501 244 L 1491 234 L 1483 230 L 1445 220 L 1425 212 L 1419 207 L 1415 199 L 1410 178 L 1408 175 L 1403 150 L 1393 131 L 1383 122 L 1367 117 L 1358 117 L 1349 119 L 1336 126 Q 1327 132 1323 143 L 1307 200 L 1303 207 L 1297 212 L 1294 212 L 1277 198 L 1229 166 L 1172 134 L 1100 102 L 1051 85 L 995 70 L 926 57 L 856 50 L 783 49 Z " /><path fill="rgb(220,232,249)" stroke="rgb(220,232,249)" stroke-width="1" opacity="1" d="M 1359.5 155 L 1364 155 L 1364 156.5 L 1366 159.5 L 1366 164.5 L 1376 202.5 L 1381 215.5 Q 1387.7 231.8 1400.5 242 L 1426.5 255 L 1471 266 L 1472 269.5 L 1468.5 274 L 1444.5 279 L 1423.5 286 L 1404.5 296 L 1392 307.5 L 1383 322.5 L 1377 338.5 L 1365 393 L 1360.5 394 L 1357 391.5 L 1352 360.5 L 1350 357.5 L 1348 344.5 L 1343 328.5 L 1336 313.5 L 1322.5 299 L 1313.5 293 L 1295.5 285 L 1250.5 274 L 1248 271.5 L 1249.5 266 L 1252.5 264 L 1275.5 260 L 1299.5 253 L 1317.5 244 L 1331 232.5 L 1337 224.5 L 1346 204.5 L 1355 171.5 L 1357 158.5 L 1359.5 155 Z " /><path fill="rgb(220,232,249)" stroke="rgb(220,232,249)" stroke-width="1" opacity="1" d="M 333 670 L 371.5 670 L 373 671.5 L 373 721.5 L 374.5 723 L 378.5 722 L 459.5 722 L 465.5 723 L 467.5 723 L 473 724.5 L 474 727.5 L 474 861.5 L 471.5 864 L 434 864 Q 431.9 860.7 433 852.5 L 431.5 851 L 426.5 852 L 424.5 851 L 423.5 852 L 373 852 L 374 905.5 L 373 906.5 L 373 940.5 L 371.5 942 L 369.5 943 L 336.5 943 L 333 940.5 L 333 852.5 L 331.5 851 L 329.5 852 L 277.5 852 L 274 851 L 274 862.5 L 272.5 864 L 235.5 864 L 234 862.5 L 234 725.5 L 235.5 724 L 237.5 723 L 331.5 723 L 333 721.5 L 333 670 Z M 274 757 L 274 816 L 333 816 L 333 759 L 332 757 L 327 758 L 325 758 L 312 757 L 284 757 L 283 758 L 274 757 Z M 375 757 L 373 759 L 373 815 L 375 816 L 433 816 L 434 815 L 433 814 L 433 758 L 426 757 L 391 757 L 390 758 L 382 757 L 380 758 L 375 757 Z " /><path fill="rgb(220,232,249)" stroke="rgb(220,232,249)" stroke-width="1" opacity="1" d="M 1090.5 697 L 1223.5 697 L 1225 698.5 L 1225 732 L 1131.5 732 L 1131 734.5 L 1131 776.5 L 1130 777.5 L 1131.5 779 L 1215 779 L 1215 812.5 L 1213.5 814 L 1130.5 814 L 1130 816.5 L 1131 817.5 L 1131 858.5 L 1130 863.5 L 1131.5 865 L 1204.5 865 L 1205.5 864 L 1225.5 864 L 1227 865.5 L 1227 899.5 L 1225.5 901 L 1208.5 901 L 1207.5 900 L 1163.5 900 L 1162.5 901 L 1142.5 901 L 1141.5 900 L 1092.5 900 L 1090 899.5 L 1089 889.5 L 1089 698.5 L 1090.5 697 Z " /><path fill="rgb(220,232,249)" stroke="rgb(220,232,249)" stroke-width="1" opacity="1" d="M 711.5 700 L 723.5 700 L 733 707.5 L 736 713.5 L 736 719.5 L 732 726.5 L 687.5 771 L 679 778.5 L 679.5 780 L 898 780 L 892.5 773 L 886 767.5 L 876.5 757 L 873 754.5 L 871.5 753 L 845 726.5 Q 841 722.5 841 714.5 L 844 707.5 L 849.5 702 L 855.5 700 L 865.5 700 L 872.5 705 L 956 788.5 L 958 792.5 L 958 802.5 L 949 815 L 933 829.5 L 883.5 880 L 880 882.5 L 878.5 884 L 870.5 893 L 863.5 897 L 854.5 897 L 849.5 895 L 844 889.5 L 841 877.5 L 844 870.5 L 898 815 L 700.5 815 L 699.5 814 L 685.5 814 L 678 815 L 695.5 834 L 734 871.5 L 736 875.5 L 736 883.5 L 730.5 892 L 721.5 897 L 714.5 897 L 704.5 891 L 620 806.5 L 618 794.5 L 619 790.5 L 625.5 783 L 704.5 705 L 711.5 700 Z " /><path fill="rgb(220,232,249)" stroke="rgb(220,232,249)" stroke-width="1" opacity="1" d="M 1328.5 747 L 1355.5 748 L 1369.5 754 L 1380 763.5 L 1388 776.5 L 1391 786.5 L 1393 799.5 L 1393 835.5 L 1393 837.5 L 1392 842.5 L 1393 845.5 L 1393 847.5 L 1393 884.5 L 1392 900 L 1353.5 900 L 1352 898.5 L 1353 854.5 L 1352 853.5 L 1352 803.5 L 1350 795.5 L 1343.5 786 L 1332.5 781 L 1320.5 781 L 1308.5 786 L 1300 794.5 L 1295 809.5 L 1295 900 L 1256.5 900 L 1255 898.5 L 1256 856.5 L 1255 855.5 L 1255 750 L 1291.5 750 L 1292 753.5 L 1293.5 770 L 1300 761 L 1319.5 749 L 1328.5 747 Z " /><path fill="rgb(220,232,249)" stroke="rgb(220,232,249)" stroke-width="1" opacity="1" d="M 825.5 1246 L 829.5 1246 L 833 1248 L 834 1256.5 L 812 1325 L 861.5 1325 L 865 1327.5 L 867 1335.5 L 784.5 1437 L 777.5 1438 L 774 1434.5 L 773 1429.5 L 796 1360.5 L 794.5 1359 L 750.5 1359 L 744 1354.5 L 742 1347.5 L 823.5 1247 L 825.5 1246 Z " /></svg>