<svg xmlns="http://www.w3.org/2000/svg" xmlns:xlink="http://www.w3.org/1999/xlink" viewBox="0 0 497.58 497.58"><defs><style>.cls-1,.cls-2{fill:none;}.cls-2{clip-rule:evenodd;}.cls-3{isolation:isolate;}.cls-4{fill:#0258a3;fill-rule:evenodd;}.cls-5{fill:#f17822;}.cls-6{fill:#e65525;}.cls-7{fill:#f60;}.cls-8{fill:#fff;}.cls-9{fill:#0058a3;}.cls-10{mix-blend-mode:overlay;}.cls-11{clip-path:url(#clip-path);}.cls-12{clip-path:url(#clip-path-2);}.cls-13{fill:url(#linear-gradient);}</style><clipPath id="clip-path"><rect class="cls-1" x="0.1" y="0.31" width="497.58" height="497.58"/></clipPath><clipPath id="clip-path-2"><path class="cls-2" d="M394.79,497.89H103A102.89,102.89,0,0,1,.1,395V103.2A102.89,102.89,0,0,1,103,.31h291.8A102.9,102.9,0,0,1,497.68,103.2V395A102.9,102.9,0,0,1,394.79,497.89"/></clipPath><linearGradient id="linear-gradient" x1="-2747.75" y1="1749.46" x2="-2746.75" y2="1749.46" gradientTransform="matrix(0, 621.45, 621.45, 0, -1086958.87, 1707539.14)" gradientUnits="userSpaceOnUse"><stop offset="0" stop-color="#959595"/><stop offset="1" stop-color="#656666"/></linearGradient></defs><g class="cls-3"><g id="Layer_1" data-name="Layer 1"><path class="cls-4" d="M394.78,497.88H103A102.88,102.88,0,0,1,.1,395V103.2A102.88,102.88,0,0,1,103,.31H394.78A102.89,102.89,0,0,1,497.68,103.2V395a102.89,102.89,0,0,1-102.9,102.89"/><path class="cls-5" d="M386.13,245.69c-.06-32.9,44.68-65.53,28.34-94.53S345.12,144.6,316,128.09C287.7,112,281.13,55.84,248.29,55.93c-34.69,0-41.43,58.05-71.16,75.81-28.64,16.14-78.76-3.65-95.9,23.88l-.1-.06c-.1.18-.14.36-.24.53s-.24.31-.34.49l0,0,.11.07c-14.62,28.54,27.58,60.13,30.65,92.51l137.64-.15,69,119c.84-.6,1.71-1.16,2.59-1.69,28.64-16.14,78.76,3.65,95.9-23.88l.1.06c.1-.18.14-.36.23-.53s.25-.31.35-.49l0-.06-.11-.06C432.07,311.94,386.51,279.19,386.13,245.69Z"/><path class="cls-6" d="M111.28,249.21c.11,1.07.17,2.14.18,3.22.06,32.9-44.69,65.53-28.35,94.53s69.36,6.56,98.44,23.07c28.34,16.08,34.9,72.25,67.75,72.16,33.65,0,41-54.64,68.57-74.12l-69-119Z"/><rect class="cls-7" x="250.45" y="249.84"/><polygon class="cls-7" points="250.39 249.88 250.39 249.88 250.39 249.88 250.39 249.88"/><rect class="cls-7" x="250.57" y="249.56" height="0.13"/><polygon class="cls-7" points="250.63 249.66 250.63 249.59 250.51 249.66 250.63 249.66"/><polygon class="cls-7" points="250.39 249.66 250.39 249.66 250.39 249.66 250.39 249.66"/><rect class="cls-7" x="250.43" y="249.8" height="0.06"/><rect class="cls-7" x="250.4" y="249.71" width="0.06" transform="translate(-91.28 158.57) rotate(-29.98)"/><rect class="cls-7" x="250.45" y="249.68" width="0.07" transform="translate(-91.29 158.73) rotate(-30.01)"/><rect class="cls-7" x="250.48" y="249.68" height="0.06"/><polygon class="cls-7" points="250.4 249.81 250.39 249.8 250.4 249.81 250.4 249.81"/><polygon class="cls-7" points="250.4 249.73 250.5 249.73 250.45 249.7 250.4 249.73"/><polygon class="cls-7" points="250.45 249.7 250.5 249.73 250.63 249.73 250.63 249.66 250.51 249.66 250.45 249.7"/><rect class="cls-7" x="250.42" y="249.64" height="0.07" transform="matrix(0.5, -0.87, 0.87, 0.5, -91.14, 341.25)"/><polygon class="cls-7" points="250.45 249.7 250.39 249.66 250.39 249.73 250.4 249.73 250.45 249.7"/><polygon class="cls-7" points="250.51 249.66 250.39 249.88 250.45 249.7 250.51 249.66"/><rect class="cls-7" x="250.57" y="249.84" height="0.13" transform="translate(-91.25 341.56) rotate(-59.93)"/><rect class="cls-7" x="250.48" y="249.82" height="0.07" transform="translate(-29.06 33) rotate(-7.13)"/><rect class="cls-7" x="250.45" y="249.82" width="0.06" transform="translate(-71.39 396.64) rotate(-69.44)"/><rect class="cls-7" x="250.58" y="249.77"/><rect class="cls-7" x="250.54" y="249.75" height="0.08"/><polygon class="cls-7" points="250.57 249.77 250.63 249.74 250.57 249.77 250.57 249.77"/><polygon class="cls-7" points="250.5 249.81 250.4 249.81 250.45 249.84 250.5 249.81"/><polygon class="cls-7" points="250.4 249.73 250.39 249.73 250.4 249.73 250.4 249.73"/><rect class="cls-7" x="250.54" y="249.71" height="0.08"/><polygon class="cls-7" points="250.5 249.81 250.57 249.77 250.5 249.73 250.4 249.73 250.39 249.73 250.39 249.8 250.4 249.81 250.5 249.81"/><polygon class="cls-7" points="250.57 249.77 250.63 249.74 250.63 249.73 250.5 249.73 250.57 249.77"/><polygon class="cls-7" points="250.39 249.73 250.39 249.73 250.4 249.73 250.39 249.73"/><polygon class="cls-7" points="250.63 249.94 250.63 249.88 250.51 249.88 250.63 249.94"/><polygon class="cls-7" points="250.45 249.84 250.51 249.88 250.63 249.88 250.63 249.81 250.5 249.81 250.45 249.84"/><polygon class="cls-7" points="250.57 249.77 250.63 249.8 250.57 249.77 250.57 249.77"/><polygon class="cls-7" points="250.5 249.81 250.63 249.81 250.63 249.8 250.57 249.77 250.5 249.81"/><polygon class="cls-7" points="250.63 249.8 250.63 249.74 250.57 249.77 250.63 249.8"/><rect class="cls-7" x="250.38" y="249.86" width="0.07" transform="translate(-91.38 158.68) rotate(-30)"/><polygon class="cls-7" points="250.4 249.81 250.39 249.81 250.39 249.88 250.45 249.84 250.4 249.81"/><polygon class="cls-7" points="250.39 249.8 250.39 249.81 250.4 249.81 250.39 249.8"/><polygon class="cls-7" points="250.39 249.88 250.51 249.88 250.45 249.84 250.39 249.88"/><path class="cls-8" d="M270,272.78l-15.4-27a6.56,6.56,0,0,0-2.6-2.55l-.07,0-.46-.22-.16-.07-.4-.15-.23-.07-.38-.1-.27-.06-.37-.06-.28,0-.39,0H200.07a6.7,6.7,0,0,0,0,13.4h44.75l13.47,23.66a6.71,6.71,0,0,0,9.14,2.51h0A6.71,6.71,0,0,0,270,272.78Z"/><path class="cls-9" d="M249.32,335.33a86.25,86.25,0,0,1-86.26-86.17l-15.67,0a101.94,101.94,0,0,0,153,88.13l-7.86-13.55A85.85,85.85,0,0,1,249.32,335.33Z"/><path class="cls-8" d="M249.35,147.12A101.93,101.93,0,0,0,147.42,249.05v.1a7.83,7.83,0,0,0,15.66,0h0v-.09a86.27,86.27,0,1,1,129.45,74.69h0a7.83,7.83,0,0,0,7.85,13.54h0a101.94,101.94,0,0,0-51-190.18Z"/><g class="cls-10"><g class="cls-11"><g class="cls-12"><rect class="cls-13" x="-102.95" y="-102.74" width="703.68" height="703.68" transform="translate(-103.24 248.95) rotate(-45)"/></g></g></g></g></g></svg>