<svg width="16" height="16" viewBox="0 0 16 16" fill="none" xmlns="http://www.w3.org/2000/svg">
  <path fill-rule="evenodd" clip-rule="evenodd"
        d="M7.32425 0H14.9202C15.5165 0 16 0.483541 16 1.07983V8.6765C16 9.03825 15.9364 9.39361 15.8154 9.72751C15.713 9.70944 15.6077 9.70001 15.5002 9.70001H15.1131C14.8186 9.10732 14.2069 8.70001 13.5002 8.70001H11.5002C10.0369 8.70001 8.76836 9.52633 8.13323 10.7374C7.31509 10.9069 6.7002 11.6317 6.7002 12.5V13.5C6.7002 14.3684 7.31509 15.0931 8.13323 15.2626C8.27268 15.5285 8.44266 15.7759 8.63854 16H1.38101C0.618237 16 0 15.3818 0 14.619V7.32425C0 6.50624 0.324631 5.72229 0.902762 5.14415L5.14415 0.902762C5.72229 0.324631 6.50624 0 7.32425 0Z"
        fill="url(#paint0_linear_744_10459)"/>
  <path fill-rule="evenodd" clip-rule="evenodd"
        d="M2.02734 4.01825H11.9827V8.70001H11.5002C10.0369 8.70001 8.76836 9.52633 8.13323 10.7374C7.31509 10.9069 6.7002 11.6317 6.7002 12.5V13.5C6.7002 13.6639 6.7221 13.8227 6.76315 13.9736H2.02734V4.01825Z"
        fill="black"/>
  <path fill-rule="evenodd" clip-rule="evenodd"
        d="M9.05001 12C9.28164 10.8589 10.2905 10 11.5 10H13.5C13.7761 10 14 10.2239 14 10.5V11H15.5C15.7761 11 16 11.2239 16 11.5C16 11.7761 15.7761 12 15.5 12H14V14H15.5C15.7761 14 16 14.2239 16 14.5C16 14.7761 15.7761 15 15.5 15H14V15.5C14 15.7761 13.7761 16 13.5 16H11.5C10.2905 16 9.28164 15.1411 9.05001 14H8.5C8.22386 14 8 13.7761 8 13.5V12.5C8 12.2239 8.22386 12 8.5 12H9.05001ZM10 13.5V12.5C10 11.6716 10.6716 11 11.5 11H13V15H11.5C10.6716 15 10 14.3284 10 13.5Z"
        fill="#818181"/>
  <path fill-rule="evenodd" clip-rule="evenodd" d="M6.83472 11.816H3.27148V12.7286H6.7002V12.5C6.7002 12.2579 6.74801 12.0269 6.83472 11.816Z"
        fill="white"/>
  <defs>
    <linearGradient id="paint0_linear_744_10459" x1="0.249716" y1="15.6428" x2="15.7041" y2="0.401816" gradientUnits="userSpaceOnUse">
      <stop stop-color="#FF6500"/>
      <stop offset="0.43" stop-color="#FF2D5F"/>
      <stop offset="0.99" stop-color="#F800FF"/>
    </linearGradient>
  </defs>
</svg>
